<svg width="261" height="39" viewBox="0 0 261 39" fill="none" xmlns="http://www.w3.org/2000/svg">
<g filter="url(#filter0_d_418_7)">
<path d="M14.81 28.252C11.5927 28.252 9.09733 27.8467 7.324 27.036C5.576 26.2253 4.41067 24.8067 3.828 22.78C3.6 21.9693 3.39733 21.0193 3.22 19.93C3.04267 18.8407 2.90333 17.7007 2.802 16.51C2.70067 15.294 2.65 14.1413 2.65 13.052C2.65 11.532 3.03 10.278 3.79 9.29C4.55 8.27667 5.52533 7.52933 6.716 7.048C7.90667 6.54133 9.16067 6.288 10.478 6.288H19.332C21.004 6.288 22.3593 6.52867 23.398 7.01C24.462 7.49133 25.2727 8.13733 25.83 8.948C26.4127 9.73333 26.818 10.6073 27.046 11.57C27.274 12.5327 27.388 13.4953 27.388 14.458C27.388 14.7113 27.3753 14.9647 27.35 15.218C27.35 15.4713 27.3373 15.7247 27.312 15.978C27.2613 16.434 27.1727 17.0673 27.046 17.878C26.9447 18.6633 26.8053 19.4867 26.628 20.348C26.4507 21.2093 26.2607 21.9947 26.058 22.704C25.678 23.996 25.108 25.022 24.348 25.782C23.588 26.5167 22.7013 27.0613 21.688 27.416C20.6747 27.7707 19.5727 27.9987 18.382 28.1C17.2167 28.2013 16.026 28.252 14.81 28.252ZM15.684 25.364C17.4067 25.364 18.762 25.2627 19.75 25.06C20.7633 24.8573 21.5233 24.5153 22.03 24.034C22.5367 23.5527 22.9167 22.894 23.17 22.058C23.4233 21.222 23.664 20.1707 23.892 18.904C24.0693 17.992 24.196 17.156 24.272 16.396C24.3733 15.6107 24.424 14.9013 24.424 14.268C24.424 12.4947 24.0313 11.2027 23.246 10.392C22.4607 9.58133 21.1687 9.176 19.37 9.176L10.554 9.214C8.85667 9.214 7.59 9.594 6.754 10.354C5.94333 11.0887 5.538 12.0893 5.538 13.356C5.58867 15.5853 5.728 17.4347 5.956 18.904C6.20933 20.348 6.42467 21.336 6.602 21.868C6.80467 22.4253 7.03267 22.932 7.286 23.388C7.56467 23.8187 7.99533 24.186 8.578 24.49C9.16067 24.7687 10.0093 24.984 11.124 25.136C12.264 25.288 13.784 25.364 15.684 25.364ZM64.856 17.384H41.144C40.7387 17.384 40.3967 17.2447 40.118 16.966C39.8393 16.6873 39.7 16.3453 39.7 15.94C39.7 15.5347 39.8393 15.1927 40.118 14.914C40.3967 14.6353 40.7387 14.496 41.144 14.496H64.856C65.2613 14.496 65.6033 14.6353 65.882 14.914C66.1607 15.1927 66.3 15.5347 66.3 15.94C66.3 16.3453 66.1607 16.6873 65.882 16.966C65.6033 17.2447 65.2613 17.384 64.856 17.384ZM96.13 8.682C96.662 8.606 97.1687 8.568 97.65 8.568C99.702 8.568 101.184 9.11267 102.096 10.202C103.008 11.2913 103.464 12.6593 103.464 14.306C103.464 14.762 103.426 15.2433 103.35 15.75C103.249 16.5607 103.122 17.4473 102.97 18.41C102.843 19.3473 102.717 20.2467 102.59 21.108C102.463 21.9693 102.362 22.6787 102.286 23.236C102.21 23.7933 102.172 24.0847 102.172 24.11C101.893 25.8833 101.235 27.2767 100.196 28.29C99.1827 29.278 97.6627 29.772 95.636 29.772C94.9013 29.772 94.078 29.696 93.166 29.544C92.786 29.4933 92.4693 29.3287 92.216 29.05C91.988 28.746 91.874 28.404 91.874 28.024C91.874 27.5427 92.0513 27.15 92.406 26.846C92.7607 26.542 93.1787 26.428 93.66 26.504C94.5467 26.656 95.294 26.732 95.902 26.732C97.1687 26.732 98.0047 26.4533 98.41 25.896C98.8407 25.3387 99.1193 24.5913 99.246 23.654C99.3473 23.0713 99.4613 22.3367 99.588 21.45C99.7147 20.538 99.854 19.55 100.006 18.486C100.158 17.422 100.297 16.3833 100.424 15.37C100.449 15.1673 100.462 14.9773 100.462 14.8C100.487 14.6227 100.5 14.4453 100.5 14.268C100.5 13.356 100.285 12.672 99.854 12.216C99.4233 11.76 98.6887 11.532 97.65 11.532C97.4727 11.532 97.2827 11.5447 97.08 11.57C96.8773 11.57 96.6747 11.5827 96.472 11.608L92.558 12.026C92.33 12.0767 92.2033 12.178 92.178 12.33C91.114 16.0793 89.632 19.4993 87.732 22.59C85.832 25.6553 83.6027 28.138 81.044 30.038C80.8413 30.2153 80.5753 30.304 80.246 30.304C79.714 30.304 79.3087 30.0887 79.03 29.658C78.954 29.5313 78.8907 29.4047 78.84 29.278C78.7893 29.126 78.764 28.974 78.764 28.822C78.764 28.29 78.9793 27.872 79.41 27.568C81.4367 25.9973 83.286 23.9453 84.958 21.412C86.63 18.8787 87.9727 15.978 88.986 12.71C88.986 12.6847 88.986 12.6593 88.986 12.634C89.0113 12.6087 89.024 12.5833 89.024 12.558C89.024 12.3553 88.91 12.2793 88.682 12.33C88.074 12.3553 87.4533 12.3807 86.82 12.406C86.212 12.406 85.5787 12.406 84.92 12.406C83.6533 12.406 82.3107 12.368 80.892 12.292C80.4867 12.2667 80.1573 12.1147 79.904 11.836C79.6507 11.5573 79.524 11.2407 79.524 10.886C79.524 10.43 79.676 10.05 79.98 9.746C80.3093 9.442 80.6893 9.31533 81.12 9.366C82.412 9.442 83.6533 9.48 84.844 9.48C85.68 9.48 86.4907 9.46733 87.276 9.442C88.0613 9.39133 88.834 9.35333 89.594 9.328C89.822 9.27733 89.9487 9.16333 89.974 8.986C90.202 7.922 90.392 6.82 90.544 5.68C90.7213 4.51466 90.848 3.34933 90.924 2.184C90.9493 1.804 91.1013 1.47467 91.38 1.196C91.6587 0.917332 92.0007 0.777998 92.406 0.777998C92.8367 0.777998 93.1913 0.929998 93.47 1.234C93.7487 1.51266 93.8753 1.86733 93.85 2.298C93.774 3.362 93.66 4.426 93.508 5.49C93.3813 6.554 93.2167 7.60533 93.014 8.644V8.72C93.014 8.948 93.128 9.03667 93.356 8.986L96.13 8.682ZM141.084 21.83C139.741 23.578 138.386 24.8827 137.018 25.744C135.675 26.6053 134.447 27.036 133.332 27.036C132.015 27.036 130.938 26.466 130.102 25.326C129.266 24.1607 128.861 22.4253 128.886 20.12V5.718C128.886 5.28733 129.025 4.93267 129.304 4.654C129.608 4.35 129.963 4.198 130.368 4.198C130.799 4.198 131.153 4.35 131.432 4.654C131.736 4.93267 131.888 5.28733 131.888 5.718V19.778C131.888 22.514 132.471 23.882 133.636 23.882C134.244 23.882 134.979 23.54 135.84 22.856C136.727 22.172 137.715 21.1713 138.804 19.854C140.248 18.182 141.489 16.244 142.528 14.04C142.807 13.432 143.288 13.128 143.972 13.128C144.403 13.128 144.757 13.28 145.036 13.584C145.315 13.888 145.454 14.23 145.454 14.61C145.454 14.838 145.403 15.0407 145.302 15.218C144.694 16.4593 144.023 17.6373 143.288 18.752C142.579 19.8413 141.844 20.8673 141.084 21.83ZM115.852 29.886C115.624 30.038 115.383 30.114 115.13 30.114C114.623 30.114 114.231 29.886 113.952 29.43C113.825 29.1767 113.762 28.936 113.762 28.708C113.762 28.176 113.965 27.7453 114.37 27.416C116.042 26.0987 117.397 24.5913 118.436 22.894C119.475 21.1967 120.235 19.17 120.716 16.814C121.223 14.4327 121.476 11.608 121.476 8.34C121.476 7.93467 121.615 7.59267 121.894 7.314C122.173 7.03533 122.502 6.896 122.882 6.896C123.313 6.896 123.68 7.048 123.984 7.352C124.288 7.63067 124.427 7.98533 124.402 8.416C124.275 11.456 124.022 14.1033 123.642 16.358C123.287 18.5873 122.768 20.5253 122.084 22.172C121.425 23.8187 120.577 25.2627 119.538 26.504C118.525 27.7453 117.296 28.8727 115.852 29.886ZM167.228 5.87C167.203 5.92067 167.19 5.984 167.19 6.06C167.19 6.212 167.291 6.288 167.494 6.288H172.434C174.309 6.288 175.626 6.71867 176.386 7.58C177.171 8.416 177.564 9.46733 177.564 10.734C177.564 11.9753 177.247 13.2927 176.614 14.686C174.866 18.5873 172.649 21.8047 169.964 24.338C167.304 26.8713 164.315 28.9613 160.996 30.608C160.819 30.684 160.616 30.722 160.388 30.722C159.755 30.722 159.299 30.4307 159.02 29.848C158.944 29.6453 158.906 29.4427 158.906 29.24C158.906 28.5813 159.197 28.1127 159.78 27.834C162.516 26.5167 164.809 25.0473 166.658 23.426C168.507 21.8047 170.002 20.1453 171.142 18.448C172.307 16.7253 173.207 15.0787 173.84 13.508C174.321 12.3933 174.562 11.494 174.562 10.81C174.562 9.746 173.827 9.214 172.358 9.214H165.632C165.48 9.214 165.341 9.29 165.214 9.442C164.125 11.2407 162.921 12.976 161.604 14.648C160.287 16.2947 158.982 17.6753 157.69 18.79C157.437 19.018 157.133 19.132 156.778 19.132C156.297 19.132 155.904 18.942 155.6 18.562C155.372 18.2833 155.258 17.9667 155.258 17.612C155.258 17.1307 155.448 16.738 155.828 16.434C156.943 15.446 158.007 14.3187 159.02 13.052C160.059 11.7853 161.021 10.468 161.908 9.1C162.795 7.732 163.58 6.38933 164.264 5.072C164.973 3.75467 165.531 2.55133 165.936 1.462C166.189 0.828665 166.645 0.511999 167.304 0.511999C167.481 0.511999 167.659 0.549999 167.836 0.625998C168.495 0.904665 168.824 1.39867 168.824 2.108C168.824 2.26 168.786 2.43733 168.71 2.64C168.507 3.14667 168.279 3.67867 168.026 4.236C167.773 4.768 167.507 5.31267 167.228 5.87ZM183.492 5.034C183.593 5.21133 183.644 5.40133 183.644 5.604C183.644 5.93333 183.505 6.19933 183.226 6.402C183.099 6.50333 182.922 6.554 182.694 6.554C182.365 6.554 182.099 6.402 181.896 6.098C181.491 5.49 181.022 4.844 180.49 4.16C179.958 3.476 179.451 2.89333 178.97 2.412C178.767 2.20933 178.666 1.96867 178.666 1.69C178.666 1.43666 178.755 1.234 178.932 1.082C179.185 0.879332 179.439 0.777998 179.692 0.777998C179.945 0.777998 180.161 0.866665 180.338 1.044C180.921 1.60133 181.478 2.23467 182.01 2.944C182.567 3.65333 183.061 4.35 183.492 5.034ZM177.374 2.564C177.957 3.12133 178.527 3.78 179.084 4.54C179.667 5.27467 180.186 5.984 180.642 6.668C180.743 6.79467 180.794 6.98467 180.794 7.238C180.794 7.59267 180.642 7.87133 180.338 8.074C180.186 8.15 180.034 8.188 179.882 8.188C179.502 8.188 179.211 8.04867 179.008 7.77C178.603 7.13667 178.121 6.478 177.564 5.794C177.032 5.08467 176.513 4.47667 176.006 3.97C175.803 3.76733 175.702 3.52667 175.702 3.248C175.702 2.99466 175.791 2.77933 175.968 2.602C176.171 2.39933 176.424 2.298 176.728 2.298C176.981 2.298 177.197 2.38667 177.374 2.564ZM217.084 21.83C215.741 23.578 214.386 24.8827 213.018 25.744C211.675 26.6053 210.447 27.036 209.332 27.036C208.015 27.036 206.938 26.466 206.102 25.326C205.266 24.1607 204.861 22.4253 204.886 20.12V5.718C204.886 5.28733 205.025 4.93267 205.304 4.654C205.608 4.35 205.963 4.198 206.368 4.198C206.799 4.198 207.153 4.35 207.432 4.654C207.736 4.93267 207.888 5.28733 207.888 5.718V19.778C207.888 22.514 208.471 23.882 209.636 23.882C210.244 23.882 210.979 23.54 211.84 22.856C212.727 22.172 213.715 21.1713 214.804 19.854C216.248 18.182 217.489 16.244 218.528 14.04C218.807 13.432 219.288 13.128 219.972 13.128C220.403 13.128 220.757 13.28 221.036 13.584C221.315 13.888 221.454 14.23 221.454 14.61C221.454 14.838 221.403 15.0407 221.302 15.218C220.694 16.4593 220.023 17.6373 219.288 18.752C218.579 19.8413 217.844 20.8673 217.084 21.83ZM191.852 29.886C191.624 30.038 191.383 30.114 191.13 30.114C190.623 30.114 190.231 29.886 189.952 29.43C189.825 29.1767 189.762 28.936 189.762 28.708C189.762 28.176 189.965 27.7453 190.37 27.416C192.042 26.0987 193.397 24.5913 194.436 22.894C195.475 21.1967 196.235 19.17 196.716 16.814C197.223 14.4327 197.476 11.608 197.476 8.34C197.476 7.93467 197.615 7.59267 197.894 7.314C198.173 7.03533 198.502 6.896 198.882 6.896C199.313 6.896 199.68 7.048 199.984 7.352C200.288 7.63067 200.427 7.98533 200.402 8.416C200.275 11.456 200.022 14.1033 199.642 16.358C199.287 18.5873 198.768 20.5253 198.084 22.172C197.425 23.8187 196.577 25.2627 195.538 26.504C194.525 27.7453 193.296 28.8727 191.852 29.886ZM253.526 20.69C253.906 21.0193 254.096 21.4373 254.096 21.944C254.096 22.2987 253.969 22.666 253.716 23.046C253.437 23.4007 253.083 23.578 252.652 23.578C252.272 23.578 251.955 23.4513 251.702 23.198C249.979 21.5513 248.219 20.1327 246.42 18.942C246.217 18.8153 246.065 18.8407 245.964 19.018C244.343 21.146 242.493 23.122 240.416 24.946C238.339 26.77 236.084 28.3787 233.652 29.772C233.399 29.8987 233.158 29.962 232.93 29.962C232.373 29.962 231.929 29.696 231.6 29.164C231.473 28.9107 231.41 28.67 231.41 28.442C231.41 27.8593 231.676 27.4033 232.208 27.074C234.437 25.8073 236.464 24.376 238.288 22.78C240.137 21.1587 241.797 19.4107 243.266 17.536C243.317 17.4853 243.342 17.4093 243.342 17.308C243.342 17.1813 243.279 17.1053 243.152 17.08C240.999 15.9907 238.617 15.1293 236.008 14.496C235.223 14.2933 234.83 13.7867 234.83 12.976C234.83 12.52 234.982 12.1527 235.286 11.874C235.615 11.57 235.983 11.418 236.388 11.418C236.54 11.418 236.654 11.4307 236.73 11.456C238.149 11.7853 239.542 12.2287 240.91 12.786C242.303 13.318 243.646 13.9133 244.938 14.572C245.039 14.6227 245.115 14.648 245.166 14.648C245.267 14.648 245.356 14.5847 245.432 14.458C247.509 11.114 249.08 7.40267 250.144 3.324C250.22 2.96933 250.397 2.69067 250.676 2.488C250.98 2.28533 251.297 2.184 251.626 2.184C252.057 2.184 252.411 2.336 252.69 2.64C252.994 2.944 253.146 3.29867 253.146 3.704C253.146 3.856 253.133 3.97 253.108 4.046C252.627 6.098 251.955 8.13733 251.094 10.164C250.258 12.1653 249.245 14.1033 248.054 15.978C248.003 16.0793 247.978 16.1553 247.978 16.206C247.978 16.3073 248.041 16.396 248.168 16.472C249.181 17.1053 250.131 17.7893 251.018 18.524C251.905 19.2333 252.741 19.9553 253.526 20.69Z" fill="#7A3E3E"/>
</g>
<defs>
<filter id="filter0_d_418_7" x="0.650002" y="0.511993" width="259.446" height="38.21" filterUnits="userSpaceOnUse" color-interpolation-filters="sRGB">
<feFlood flood-opacity="0" result="BackgroundImageFix"/>
<feColorMatrix in="SourceAlpha" type="matrix" values="0 0 0 0 0 0 0 0 0 0 0 0 0 0 0 0 0 0 127 0" result="hardAlpha"/>
<feOffset dx="2" dy="4"/>
<feGaussianBlur stdDeviation="2"/>
<feComposite in2="hardAlpha" operator="out"/>
<feColorMatrix type="matrix" values="0 0 0 0 0 0 0 0 0 0 0 0 0 0 0 0 0 0 0.25 0"/>
<feBlend mode="normal" in2="BackgroundImageFix" result="effect1_dropShadow_418_7"/>
<feBlend mode="normal" in="SourceGraphic" in2="effect1_dropShadow_418_7" result="shape"/>
</filter>
</defs>
</svg>
